<svg id="Layer_1" data-name="Layer 1" xmlns="http://www.w3.org/2000/svg" xmlns:xlink="http://www.w3.org/1999/xlink" viewBox="0 0 60 30"><defs><style>.cls-1{fill:none;}.cls-2{fill:#002856;}.cls-3{fill:#003da6;}.cls-4{clip-path:url(#clip-path);}</style><clipPath id="clip-path"><rect class="cls-1" x="1.2" y="3.6" width="85.38" height="29.4"/></clipPath></defs><title>Artboard 1</title><path class="cls-2" d="M50.89,5.16H54l-5.2,8.61,5.46,9.43H51.22l-4-6.9-4.12,6.9H40Zm-5.83,7.45L40.73,5.16h3.1l2.81,4.95Z"/><polygon class="cls-3" points="10.64 16.26 15.05 16.26 12.37 10.13 6.43 23.2 3.5 23.2 12.42 4.03 21.03 23.2 18.05 23.2 16.16 18.82 9.49 18.82 10.64 16.26"/><g class="cls-4"><path class="cls-2" d="M28.32,20.64h.07a10.51,10.51,0,0,0,3.05-.38,6.41,6.41,0,0,0,2.2-1.3,6.16,6.16,0,0,0,2-4.78,6.24,6.24,0,0,0-2-4.81,7.52,7.52,0,0,0-5.27-1.65H27.17V23.2H24.44v-18h3.79a13.73,13.73,0,0,1,4.3.54A8.05,8.05,0,0,1,35.6,7.49a8.64,8.64,0,0,1,2.79,6.69,8.54,8.54,0,0,1-2.91,6.73,8.47,8.47,0,0,1-3.06,1.79,14.06,14.06,0,0,1-4.24.5h.15"/></g></svg>